<svg xmlns="http://www.w3.org/2000/svg" viewBox="0 0 1416.54 926.38"><defs><style>.cls-1{fill:#c5d2d2;}</style></defs><title>Asset 1</title><g id="Layer_2" data-name="Layer 2"><g id="Layer_1-2" data-name="Layer 1"><path class="cls-1" d="M181.56,625.69l-90,155.87H284.83l-90-155.87H527.79l-86.63,150h.1l-87,150.64h714.55L895.16,625.56h351.26L1069.61,319.32h346.93L1233.07,1.55,1059.64,302,885.37.12,713.42,298,638,167.37h0L541.41,0,444.78,167.37h.1L366.09,303.83l-88.44-153.2L181,318H358.55l-90.67,157h.1l-80.84,140L96.63,458.31,0,625.69H181.56Zm-15-15.42H26.69L96.63,489.14Zm181-307.67H207.71l69.94-121.14Zm728.72,1.31L1233.07,32.38l156.77,271.53ZM434.45,459.64H294.58L364.52,338.5Zm20.09-278.18L524.48,302.6H384.6ZM611.35,152H471.47L541.41,30.83Zm7.34,15.41L541.45,301.16,464.21,167.37Zm79.6,135.23H558.42l69.93-121.14Zm168,307.55H552.72L709.48,338.63Zm175.89-307.68H728.61L885.37,31Zm-136,307.68L1063,338.63l156.77,271.52ZM887.33,612l-2-3.39-1.1,1.92L715.38,318H725l-.07-.12h325.52l-.83,1.43h6.7ZM728.61,911,885.37,639.44,1042.14,911ZM634.4,775.74h0l-86.63-150h.3l-.07-.13H875.59l-164,284ZM554.8,911l69.93-121.13L694.67,911ZM450.92,789.83,520.86,911H381Zm9.67-14.09H615.07L537.83,909.53Zm77.2-136.55,69.94,121.14H467.85ZM461.13,475.05h0L370.48,318H703.59L537,606.51ZM381.52,610.27l69.94-121.13L521.4,610.27ZM287.31,475.05H441.8L364.55,608.84Zm-79.6,135.22,69.94-121.13,69.94,121.13ZM188.2,645l69.94,121.14H118.26Z"/></g></g></svg>