<svg id="Layer_1" data-name="Layer 1" xmlns="http://www.w3.org/2000/svg" xmlns:xlink="http://www.w3.org/1999/xlink" viewBox="0 0 1228.59 753.19"><defs><style>.cls-1{fill:none;}.cls-2{clip-path:url(#clip-path);}.cls-3{fill:url(#linear-gradient);}.cls-4{fill:url(#linear-gradient-2);}</style><clipPath id="clip-path"><rect class="cls-1" x="-345.95" y="-148.97" width="1920" height="1080"/></clipPath><linearGradient id="linear-gradient" x1="613.87" y1="188.27" x2="613.87" y2="1430.77" gradientUnits="userSpaceOnUse"><stop offset="0" stop-color="#333"/><stop offset="0.53"/></linearGradient><linearGradient id="linear-gradient-2" x1="1399.22" y1="-7.14" x2="1399.22" y2="919.23" gradientUnits="userSpaceOnUse"><stop offset="0" stop-color="#c6d2d2"/><stop offset="0.44" stop-color="#c6d2d2"/><stop offset="1" stop-color="#c6d2d2" stop-opacity="0"/></linearGradient></defs><title>home-decoration</title><g class="cls-2"><polygon class="cls-3" points="1250.01 1430.77 -22.26 1430.77 -22.26 499.43 1250.01 188.27 1250.01 1430.77"/><path class="cls-4" d="M872.51,618.54l-90,155.88H975.79l-90-155.88h333L1132.11,768.6h.11l-87,150.63h714.54L1586.12,618.42h351.26L1760.57,312.18h346.92L1924-5.59l-173.44,300.4L1576.33-7l-172,297.84L1329,160.23h0L1232.37-7.14l-96.64,167.37h.11l-78.79,136.46L968.6,143.49,872,310.87h177.54l-90.67,157h.1l-80.84,140L787.59,451.17,691,618.54H872.51Zm-15-15.41H717.65L787.59,482Zm181-307.68H898.67L968.6,174.32Zm728.72,1.31L1924,25.24,2080.8,296.76ZM1125.41,452.5H985.53l69.94-121.14Zm20.09-278.18,69.94,121.13H1075.56Zm156.81-29.5H1162.43l69.94-121.14Zm7.34,15.41L1232.4,294l-77.24-133.79Zm79.6,135.22H1249.37l69.94-121.13Zm168,307.56H1243.67l156.77-271.53ZM1733.1,295.33H1419.56L1576.33,23.8ZM1597.15,603l156.77-271.53L1910.68,603Zm-18.86,1.85-2-3.39-1.11,1.92L1406.34,310.87h9.6l-.07-.13H1741.4l-.83,1.44h6.69Zm-158.73,299,156.77-271.53L1733.1,903.82ZM1325.35,768.6h0l-86.63-150.06h.3l-.07-.12h327.56l-163.94,284Zm-79.6,135.22,69.94-121.14,69.94,121.14ZM1141.88,782.68l69.94,121.14H1071.94Zm9.66-14.08H1306l-77.24,133.78Zm77.21-136.55,69.94,121.14H1158.81Zm-76.67-164.14h0l-90.67-157h333.11L1228,599.37Zm-79.6,135.22L1142.42,482l69.93,121.14ZM978.27,467.91h154.48L1055.51,601.7Zm-79.6,135.22L968.6,482l69.94,121.14Zm-19.52,34.74L949.09,759H809.22Z"/></g><rect class="cls-1" width="1228.59" height="753.19"/></svg>