<svg xmlns="http://www.w3.org/2000/svg" viewBox="0 0 202.09 164.41"><defs><style>.cls-1{fill:#c59b6c;}</style></defs><title>Asset 2</title><g id="Layer_2" data-name="Layer 2"><g id="Layer_1-2" data-name="Layer 1"><path class="cls-1" d="M151.07,90.84l-19-32.9-1.19-2.06L116.76,31.42,98.62,0,70,49.59,55.76,74.24,30,118.86H167.24Zm10.18,24.56H138.84V99.67l10.76,3.17,1-3.32-11.74-3.46v-6l9.56,3.06ZM129.38,78.08l2.16-14.14,7.49,13-4.71,1.61,1.12,3.27L140.8,80l5,8.71-8.75-2.8-9.41,3.38Zm-2-21.39a14.44,14.44,0,1,1-13.06-22.63ZM112.41,30.81a17.91,17.91,0,1,0,12,33.15,18.22,18.22,0,0,0,4.07-3.23L126,77.56l-2.59,16.92,12-4.3v12.91l-7,4.8,1.95,2.86,5.09-3.47v8.12h-16l-9.07-7.61V98.93l2.59,2.8,2.54-2.34-5.13-5.57V77.7h-3.46v22.92l-6.94,4.27,1.82,3,5.12-3.16V115.4H90.5V86.15l5.57,5.1,2.34-2.55L90.5,81.46V62.21L93.09,65l2.54-2.34L90.5,57.1v-8H87V67.76L80.1,72l1.82,3L87,71.82V115.4H67.68V101.82L78.45,105l1-3.32L67.68,98.21v-6l13.44,4.3L73.3,50.78,98.62,6.92Zm-2.11,81.5L114,115.4H110.3ZM58.22,80.23l.7-4.54L70.59,55.47l3.78,22.11L68,79.76,69.11,83,75,81l1.79,10.47L65.92,88l-9.4,3.37Zm-4.06,3.7-1.94,12.7,12-4.3v12.9l-7,4.8,2,2.86,5.08-3.47v6H36Z"/><path class="cls-1" d="M13.6,156.91q-6.28,0-10-3.85T0,142.37q0-6.65,3.76-10.57a13,13,0,0,1,10-3.89,20.6,20.6,0,0,1,3,.2,19.81,19.81,0,0,1,2.55.54,17.76,17.76,0,0,1,2.08.78c.75.32,1.35.61,1.81.85l0,6.65h-.71l-1.27-1.09a15.58,15.58,0,0,0-1.74-1.23,11.46,11.46,0,0,0-2.14-1,7.17,7.17,0,0,0-2.44-.44,7.78,7.78,0,0,0-2.79.47,6.63,6.63,0,0,0-2.42,1.64,8,8,0,0,0-1.73,2.88,12.3,12.3,0,0,0-.68,4.29,11.94,11.94,0,0,0,.67,4.38,8,8,0,0,0,1.8,2.87,6.71,6.71,0,0,0,2.42,1.53,7.89,7.89,0,0,0,2.67.48,7.56,7.56,0,0,0,2.65-.44,10.48,10.48,0,0,0,2.12-1,13.38,13.38,0,0,0,1.66-1.17c.47-.4.89-.75,1.24-1.06h.64l0,6.56-1.78.81a16.84,16.84,0,0,1-2.09.77,23.26,23.26,0,0,1-2.45.59,20,20,0,0,1-3.15.19"/><path class="cls-1" d="M47.07,146a11.35,11.35,0,0,1-2.88,8.17c-1.9,2-4.58,3-8,2.95s-6.11-1-8-3-2.84-4.73-2.82-8.2,1-6.23,2.9-8.2,4.59-2.95,8-2.93,6.11,1,8,3A11.42,11.42,0,0,1,47.07,146m-6.73,0a13.13,13.13,0,0,0-.29-3.12,5.71,5.71,0,0,0-.84-2,3.2,3.2,0,0,0-1.31-1.1,4.18,4.18,0,0,0-1.67-.32,4.69,4.69,0,0,0-1.59.26,3.1,3.1,0,0,0-1.32,1,5.56,5.56,0,0,0-.91,2,12.49,12.49,0,0,0-.35,3.2,12.3,12.3,0,0,0,.3,3.13,5.8,5.8,0,0,0,.82,1.9,3.08,3.08,0,0,0,1.3,1.08,4.34,4.34,0,0,0,1.75.34,3.92,3.92,0,0,0,1.6-.33,3,3,0,0,0,1.31-1,6,6,0,0,0,.89-1.94,12.73,12.73,0,0,0,.31-3.14"/><polygon class="cls-1" points="67.3 156.63 48.9 156.54 48.92 152.21 59.02 140.46 49.42 140.42 49.45 135.49 67.2 135.57 67.18 139.83 57.06 151.55 67.33 151.6 67.3 156.63"/><polygon class="cls-1" points="90.45 135.69 79.68 164.41 72.63 164.38 75.86 156.16 68.23 135.58 75.13 135.61 79.49 148.83 83.7 135.66 90.45 135.69"/><polygon class="cls-1" points="128.34 156.93 121.59 156.89 110.93 137.38 110.83 156.84 104.42 156.81 104.56 128.9 113.16 128.94 121.99 144.97 122.07 128.98 128.48 129.01 128.34 156.93"/><path class="cls-1" d="M153.89,146.53q0,5.21-2.88,8.17t-8,3c-3.44,0-6.1-1-8-3s-2.84-4.73-2.82-8.19,1-6.24,2.9-8.21,4.59-2.95,8-2.93,6.12,1,8,3,2.82,4.74,2.81,8.21m-6.73,0a13.61,13.61,0,0,0-.3-3.12,5.77,5.77,0,0,0-.84-2,3.28,3.28,0,0,0-1.31-1.1,4.31,4.31,0,0,0-1.66-.32,4.51,4.51,0,0,0-1.6.27,3.13,3.13,0,0,0-1.32,1,5.91,5.91,0,0,0-.91,2,13,13,0,0,0-.35,3.21,12.63,12.63,0,0,0,.3,3.12,5.86,5.86,0,0,0,.82,1.91,3.08,3.08,0,0,0,1.31,1.07A4.43,4.43,0,0,0,143,153a4.24,4.24,0,0,0,1.6-.33,2.94,2.94,0,0,0,1.31-1,5.73,5.73,0,0,0,.89-1.93,13.21,13.21,0,0,0,.32-3.14"/><path class="cls-1" d="M177.58,146.65a11.44,11.44,0,0,1-2.88,8.17c-1.9,2-4.58,3-8,3s-6.1-1-8-3-2.83-4.73-2.81-8.2,1-6.23,2.9-8.2,4.59-3,8-2.93,6.12,1,8,3,2.83,4.74,2.81,8.21m-6.73,0a13.18,13.18,0,0,0-.29-3.12,5.9,5.9,0,0,0-.85-2,3.18,3.18,0,0,0-1.3-1.1,4.18,4.18,0,0,0-1.67-.32,4.65,4.65,0,0,0-1.59.26,3.1,3.1,0,0,0-1.32,1,5.56,5.56,0,0,0-.91,2,12.49,12.49,0,0,0-.35,3.2,12.3,12.3,0,0,0,.3,3.13,6,6,0,0,0,.81,1.9,3.17,3.17,0,0,0,1.31,1.08,4.32,4.32,0,0,0,1.74.34,3.94,3.94,0,0,0,1.61-.33,3,3,0,0,0,1.31-1,6,6,0,0,0,.89-1.94,13.24,13.24,0,0,0,.31-3.14"/><polygon class="cls-1" points="202.09 157.29 194.29 157.25 188.63 148.05 187.62 149.42 187.58 157.22 181.02 157.18 181.16 128.01 187.72 128.05 187.64 144.39 193.9 136.19 201.65 136.23 194.23 145.27 202.09 157.29"/></g></g></svg>